<svg width="69" height="57" viewBox="0 0 69 57" fill="none" xmlns="http://www.w3.org/2000/svg">
<rect width="69" height="57" rx="5" fill="#E92B2B"/>
<path d="M30.4931 17.966V34.334C30.4931 35.39 30.3171 36.358 29.9651 37.238C29.6351 38.096 29.1401 38.833 28.4801 39.449C27.8201 40.043 27.0171 40.516 26.0711 40.868C25.1471 41.198 24.0911 41.363 22.9031 41.363C21.7591 41.363 20.7471 41.209 19.8671 40.901C19.0091 40.593 18.2611 40.153 17.6231 39.581C17.0071 39.009 16.5011 38.327 16.1051 37.535C15.7091 36.743 15.4341 35.863 15.2801 34.895L19.9661 33.971C20.3401 35.973 21.2971 36.974 22.8371 36.974C23.5631 36.974 24.1791 36.743 24.6851 36.281C25.2131 35.819 25.4771 35.093 25.4771 34.103V21.992H18.4811V17.966H30.4931ZM35.4297 41V17.966H46.3197C47.3977 17.966 48.3657 18.153 49.2237 18.527C50.0817 18.879 50.8077 19.374 51.4017 20.012C52.0177 20.65 52.4907 21.431 52.8207 22.355C53.1507 23.257 53.3157 24.247 53.3157 25.325C53.3157 26.425 53.1507 27.426 52.8207 28.328C52.4907 29.23 52.0177 30 51.4017 30.638C50.8077 31.276 50.0817 31.782 49.2237 32.156C48.3657 32.508 47.3977 32.684 46.3197 32.684H40.4457V41H35.4297ZM40.4457 28.328H45.7257C46.4737 28.328 47.0567 28.141 47.4747 27.767C47.9147 27.371 48.1347 26.799 48.1347 26.051V24.599C48.1347 23.851 47.9147 23.29 47.4747 22.916C47.0567 22.52 46.4737 22.322 45.7257 22.322H40.4457V28.328Z" fill="white"/>
</svg>
